<svg fill="#70C041" xmlns="http://www.w3.org/2000/svg" data-name="Layer 1" viewBox="0 0 100 100" x="0px" y="0px"><title>07</title><g data-name="Group"><path data-name="Compound Path" d="M2.09,50.83a4,4,0,0,0,5.64.44l4.21-3.6V82.44A11.64,11.64,0,0,0,23.57,94.06H76.43A11.64,11.64,0,0,0,88.06,82.44V47.68l4.21,3.6a4,4,0,0,0,5.19-6.08L52.6,6.89a4,4,0,0,0-5.19,0L2.54,45.19A4,4,0,0,0,2.09,50.83Zm36.13,3.63a15.55,15.55,0,0,1,2.17,2.42Zm-3.39,8.2a15.53,15.53,0,0,1-2.92-3.25Zm24.78-5.78a15.54,15.54,0,0,1,2.17-2.42Zm8.48,2.52a15.53,15.53,0,0,1-2.92,3.25ZM50,15.2,80.06,40.85V82.44a3.63,3.63,0,0,1-3.63,3.63H54v-11l.73-.82h.49A23.41,23.41,0,0,0,78.11,45.72a4,4,0,0,0-3.48-3.1,23.91,23.91,0,0,0-2.5-.13A23.5,23.5,0,0,0,50,58.1,23.5,23.5,0,0,0,27.87,42.49a23.91,23.91,0,0,0-2.5.13,4,4,0,0,0-3.48,3.09A23.41,23.41,0,0,0,44.78,74.3h.48l.73.82v11H23.57a3.63,3.63,0,0,1-3.63-3.63V40.85Z"></path></g></svg>