<svg fill="#EC5D57" xmlns="http://www.w3.org/2000/svg" xmlns:xlink="http://www.w3.org/1999/xlink" version="1.1" x="0px" y="0px" viewBox="0 0 48 48" enable-background="new 0 0 48 48" xml:space="preserve"><g><path d="M25.5,4.4h1.2v17h14v-17h1.2c1.1,0,2-0.9,2-2s-0.9-2-2-2h-3.2h-10h-3.2c-1.1,0-2,0.9-2,2S24.4,4.4,25.5,4.4z"></path><g><rect x="13.5" y="37.9" width="3.9" height="9.6"></rect><rect x="30.6" y="37.9" width="3.9" height="9.6"></rect><path d="M0.5,25.3v20.2c0,1.1,0.9,2,2,2h7.1V35.9c0-1.1,0.9-2,2-2h7.8c1.1,0,2,0.9,2,2v11.6h5.4V35.9c0-1.1,0.9-2,2-2h7.8    c1.1,0,2,0.9,2,2v11.6h7.1c1.1,0,2-0.9,2-2V25.3H0.5z"></path></g></g></svg>