<svg fill="#EC5D57" xmlns="http://www.w3.org/2000/svg" xmlns:xlink="http://www.w3.org/1999/xlink" version="1.1" x="0px" y="0px" viewBox="0 0 48 48" enable-background="new 0 0 48 48" xml:space="preserve"><path d="M46.5,12.1c-0.6-0.3-1.4-0.3-2,0.1L34.5,19v-5.1c0-0.7-0.4-1.4-1-1.7c-0.6-0.3-1.4-0.3-2,0.1L21.6,19V9.8  c0-0.6-0.3-1.1-0.7-1.5L12.3,1c-0.7-0.6-1.8-0.6-2.5,0L1.2,8.3C0.8,8.7,0.5,9.2,0.5,9.8v35.8c0,1.1,0.9,2,2,2h21c1.1,0,2-0.9,2-2  v-9.3H32v9.3c0,1.1,0.9,2,2,2h11.5c1.1,0,2-0.9,2-2l0-31.7C47.5,13.1,47.1,12.4,46.5,12.1z"></path></svg>