<svg fill="#F38F19" xmlns="http://www.w3.org/2000/svg" xmlns:xlink="http://www.w3.org/1999/xlink" version="1.1" x="0px" y="0px" viewBox="0 0 100 100" enable-background="new 0 0 100 100" xml:space="preserve"><path d="M53.864,94.55h-6.669c-2.455,0-4.452-1.997-4.452-4.451v-5.813c0-0.461-0.477-1.108-0.912-1.237l-0.191-0.067l-8.361-3.454  c-0.121-0.067-0.307-0.105-0.509-0.105c-0.439,0-0.811,0.173-0.971,0.333l-4.115,4.106c-0.85,0.838-1.966,1.295-3.151,1.295  c-1.183,0-2.294-0.455-3.128-1.281l-4.743-4.744c-1.728-1.728-1.729-4.544-0.004-6.278l4.122-4.121  c0.331-0.327,0.437-1.089,0.215-1.491l-0.097-0.203l-3.41-8.319c-0.135-0.446-0.77-0.918-1.235-0.918h-5.823  c-2.455,0-4.451-1.999-4.451-4.456V46.67c0-2.457,1.997-4.456,4.451-4.456h5.823c0.463,0,1.098-0.479,1.235-0.931l0.064-0.18  l3.444-8.347c0.221-0.401,0.113-1.165-0.21-1.486l-4.124-4.119c-1.723-1.724-1.727-4.542-0.01-6.283l4.748-4.737  c0.833-0.833,1.948-1.294,3.137-1.294c1.184,0,2.298,0.457,3.139,1.286l4.124,4.13c0.155,0.155,0.525,0.326,0.96,0.326  c0.202,0,0.388-0.039,0.509-0.107l0.219-0.106l8.338-3.418c0.437-0.131,0.917-0.777,0.917-1.233V9.901  c0-2.455,1.997-4.452,4.452-4.452h6.669c2.459,0,4.46,1.997,4.46,4.452v5.814c0,0.458,0.479,1.103,0.914,1.232l0.189,0.067  l8.349,3.453c0.127,0.071,0.319,0.112,0.528,0.112c0.438,0,0.806-0.169,0.963-0.327l4.111-4.125  c0.844-0.836,1.958-1.292,3.146-1.292c1.188,0,2.302,0.456,3.137,1.282l4.732,4.743c1.725,1.749,1.721,4.567-0.001,6.29l-4.1,4.111  c-0.333,0.331-0.443,1.094-0.223,1.494l0.099,0.206l3.418,8.333c0.132,0.447,0.756,0.919,1.214,0.919h5.835  c2.457,0,4.456,1.999,4.456,4.456v6.673c0,2.457-1.999,4.456-4.456,4.456h-5.835c-0.46,0-1.084,0.466-1.214,0.906l-0.068,0.192  l-3.45,8.348c-0.217,0.392-0.108,1.173,0.208,1.492l4.114,4.109c1.73,1.739,1.729,4.556,0.001,6.283l-4.722,4.735  c-0.836,0.839-1.953,1.301-3.146,1.301c-1.193,0-2.311-0.462-3.146-1.302l-4.11-4.11c-0.162-0.162-0.532-0.333-0.974-0.333  c-0.208,0-0.401,0.04-0.529,0.11l-0.199,0.096l-8.334,3.422c-0.433,0.128-0.908,0.775-0.908,1.236v5.813  C58.324,92.553,56.323,94.55,53.864,94.55z M43.083,79.248c2.062,0.673,3.661,2.861,3.661,5.037v5.813  c0,0.24,0.211,0.451,0.452,0.451h6.669c0.249,0,0.46-0.207,0.46-0.451v-5.813c0-2.217,1.566-4.36,3.662-5.037l7.969-3.284  c0.695-0.355,1.501-0.543,2.34-0.543c1.465,0,2.852,0.55,3.806,1.509l4.109,4.109c0.11,0.11,0.245,0.127,0.315,0.127  s0.205-0.017,0.313-0.125l4.724-4.737c0.168-0.168,0.166-0.462-0.002-0.632l-4.117-4.112c-1.532-1.546-1.928-4.212-0.936-6.136  l3.279-7.967c0.677-2.094,2.812-3.658,5.015-3.658h5.835c0.243,0,0.456-0.213,0.456-0.456V46.67c0-0.243-0.213-0.456-0.456-0.456  h-5.835c-2.201,0-4.336-1.57-5.015-3.671l-3.279-7.969c-1.015-1.966-0.612-4.584,0.962-6.146l4.093-4.104  c0.17-0.17,0.165-0.471-0.008-0.647l-4.716-4.726c-0.101-0.1-0.24-0.116-0.313-0.116s-0.213,0.016-0.321,0.124L72.1,23.078  c-0.954,0.955-2.337,1.501-3.795,1.501c-0.845,0-1.655-0.19-2.354-0.552l-7.967-3.281c-2.094-0.682-3.66-2.823-3.66-5.031V9.901  c0-0.253-0.202-0.452-0.46-0.452h-6.669c-0.249,0-0.452,0.203-0.452,0.452v5.814c0,2.168-1.598,4.354-3.659,5.03l-7.979,3.281  c-0.695,0.362-1.502,0.553-2.345,0.553c-1.452,0-2.833-0.545-3.787-1.496l-4.117-4.123c-0.231-0.229-0.438-0.19-0.629,0.001  l-4.739,4.728c-0.162,0.164-0.166,0.465,0.002,0.633l4.117,4.112c1.567,1.553,1.968,4.171,0.953,6.139l-3.276,7.974  c-0.689,2.098-2.832,3.667-5.031,3.667h-5.823c-0.24,0-0.451,0.213-0.451,0.456v6.673c0,0.243,0.211,0.456,0.451,0.456h5.823  c2.201,0,4.344,1.563,5.031,3.654l3.277,7.972c1.016,1.972,0.612,4.591-0.962,6.144l-4.108,4.107c-0.165,0.166-0.166,0.46,0,0.626  l4.737,4.737c0.102,0.101,0.235,0.116,0.306,0.116c0.074,0,0.215-0.018,0.335-0.135l4.104-4.097  c0.954-0.954,2.339-1.503,3.798-1.503c0.837,0,1.64,0.188,2.331,0.544L43.083,79.248z"></path><g><path d="M31.736,67.795c4.72,4.984,11.396,8.099,18.8,8.099s14.079-3.114,18.797-8.099H31.736z"></path><path d="M31.873,64.795v-3.449c0-0.553,0.448-1,1-1h3.009c0.552,0,1,0.447,1,1v3.449h2.398v-6.982c0-0.553,0.448-1,1-1h3.007   c0.552,0,1,0.447,1,1v6.982h3.146V52.924c0-0.553,0.448-1,1-1h3.009c0.553,0,1,0.447,1,1v11.871h3.146V48.264c0-0.552,0.447-1,1-1   h3.007c0.553,0,1,0.448,1,1v16.531h3.146V43.151c0-0.552,0.447-1,1-1h3.007c0.553,0,1,0.448,1,1v21.644h3.032   C74.705,60.6,76.427,55.502,76.427,50c0-14.299-11.591-25.893-25.89-25.893S24.641,35.701,24.641,50   c0,5.502,1.722,10.6,4.65,14.795H31.873z M61.742,34.586l-1.362-1.662l5.864,0.105l-1.05,5.77l-1.329-1.623   C51.811,47.333,29.581,48.174,28.618,48.264C28.844,48.243,50.522,44.23,61.742,34.586z"></path></g></svg>