<svg fill="#51A7F9" xmlns="http://www.w3.org/2000/svg" xmlns:xlink="http://www.w3.org/1999/xlink" version="1.1" x="0px" y="0px" viewBox="0 0 36 36" style="enable-background:new 0 0 36 36;" xml:space="preserve"><g><g><path d="M18,30.9c-2.2,0-4-1.8-4-4c0-1.3,0.6-2.5,1.7-3.3V7.6c0-1.4,1.1-2.5,2.5-2.5s2.5,1.1,2.5,2.5v16.3c0.9,0.8,1.4,1.8,1.4,3    C22,29.1,20.2,30.9,18,30.9z M18.2,7.1c-0.3,0-0.5,0.2-0.5,0.5v16.6c0,0.4-0.2,0.7-0.6,0.9c-0.7,0.3-1.1,1-1.1,1.8    c0,1.1,0.9,2,2,2c1.1,0,2-0.9,2-2c0-0.7-0.3-1.3-0.9-1.7c-0.3-0.2-0.4-0.5-0.4-0.8V7.6C18.7,7.3,18.4,7.1,18.2,7.1z"></path></g><g><path d="M19.7,24.4v-9.8c-1.2,0-1.5,0-3,0v9.6c-1,0.5-1.7,1.5-1.7,2.7c0,1.7,1.3,3,3,3s3-1.3,3-3C21,25.9,20.5,24.9,19.7,24.4z"></path></g></g></svg>