<svg fill="#F16873" xmlns="http://www.w3.org/2000/svg" xmlns:xlink="http://www.w3.org/1999/xlink" version="1.1" x="0px" y="0px" viewBox="0 0 100 100" enable-background="new 0 0 100 100" xml:space="preserve"><path d="M51.5,35v13.5h-21c-0.137,0-0.254-0.053-0.352-0.148C30.053,48.254,30,48.136,30,48V34h18.5V5h-40v29H27v14  c0.006,1.936,1.564,3.494,3.5,3.5h21V64H70v15c0,0.136-0.053,0.254-0.148,0.352C69.754,79.447,69.636,79.5,69.5,79.5h-21V66h-40v29  h40V82.5h21c1.935-0.006,3.494-1.564,3.5-3.5V64h18.5V35H51.5z M13.5,14h30v15h-30V14z M13.5,90V75h30v15H13.5z M86.5,59h-30V44h30  V59z"></path></svg>