<svg fill="#51A7F9" xmlns="http://www.w3.org/2000/svg" xmlns:xlink="http://www.w3.org/1999/xlink" version="1.1" x="0px" y="0px" viewBox="0 0 100 100" style="enable-background:new 0 0 100 100;" xml:space="preserve"><g><path d="M50,17.5c-0.8,0-1.6,0-2.4,0.1C29.9,18.8,15.7,33.4,15,51.1c-0.2,4.3,0.4,8.6,1.7,12.4c0.8,2.5,3.1,4.4,5.7,4.4h55.1   c2.6,0,4.9-1.9,5.7-4.3c1.1-3.5,1.8-7.3,1.8-11.1C85,33.3,69.3,17.5,50,17.5z M79.4,62.5c-0.2,0.8-1,1.5-1.9,1.5H22.4   c-0.9,0-1.6-0.8-1.9-1.7c-1.1-3.5-1.6-7.2-1.5-10.9c0.6-15.6,13.3-28.7,28.8-29.8c0.7,0,1.4-0.1,2.2-0.1c17.1,0,31,14,31,31.1   C81,56,80.5,59.3,79.4,62.5z"></path><path d="M66.3,36.3L51.8,50.9c-0.6-0.2-1.2-0.4-1.8-0.4c-2.8,0-5,2.2-5,5c0,2.8,2.2,5,5,5s5-2.2,5-5c0-0.6-0.1-1.3-0.4-1.8   l14.5-14.5c0.8-0.8,0.8-2,0-2.8C68.4,35.6,67.1,35.6,66.3,36.3z"></path><path d="M58.3,34.6c1,0.4,2.2-0.1,2.6-1.1c0.4-1-0.1-2.2-1.1-2.6C56.6,29.6,53.4,29,50,29c-11.1,0-21.1,7-24.9,17.4   c-0.4,1,0.1,2.2,1.2,2.6C26.5,49,26.8,49,27,49c0.8,0,1.6-0.5,1.9-1.3C32.1,38.9,40.6,33,50,33C52.9,33,55.6,33.5,58.3,34.6z"></path><path d="M70,73H30c-2.8,0-5,2.2-5,5c0,2.8,2.2,5,5,5h40c2.8,0,5-2.2,5-5C75,75.2,72.8,73,70,73z M70,79h-5v-2h5c0.6,0,1,0.4,1,1   S70.6,79,70,79z"></path></g></svg>