<svg fill="#EC5D57" xmlns="http://www.w3.org/2000/svg" xmlns:xlink="http://www.w3.org/1999/xlink" version="1.1" x="0px" y="0px" viewBox="-252 375.9 90 90" style="enable-background:new -252 375.9 90 90;" xml:space="preserve"><g><path d="M-227.7,380.6c-0.8,0.1-1.4,0.7-1.4,1.5v21.7c0,0.8,0.6,1.5,1.4,1.6l2.7,0.4c0.8,0.1,0.8,0.2,0,0.3l-2.7,0.2   c-0.8,0.1-1.4,0.7-1.4,1.5v4.5c0,0.8,0.6,1.4,1.4,1.4c0,0,4.1-0.1,3.8,0c-0.2,0.1-3.8,0.5-3.8,0.5c-0.8,0.1-1.4,0.4-1.4,0.8   c0,0.3,0.6,0.5,1.4,0.3l2.4-0.6c0.8-0.2,0.8-0.1,0.1,0.3l-2.6,1.2c-0.7,0.3-1.2,0.9-1.1,1.3s0.7,0.4,1.4,0l2.7-1.6   c0.7-0.4,0.7-0.3,0.2,0.2l-2.7,2.5c-0.6,0.5-0.9,1.2-0.6,1.5c0.2,0.3,0.9,0.1,1.4-0.5l2.7-2.7c0.6-0.6,0.6-0.5,0.1,0.1l-2.3,3.1   c-0.5,0.6-0.5,1.3-0.1,1.5c0.4,0.2,1-0.2,1.4-0.8l1.8-3.2c0.4-0.7,0.5-0.6,0.2,0.1l-1.2,3c-0.3,0.7,0.1,1.4,0.9,1.4l4.6,0.3   c0.8,0.1,1.4-0.5,1.4-1.3v-3.8c0-0.8-0.6-1.5-1.4-1.5l-1.7-0.1c-0.8,0-1.8-0.4-2.3-0.9c0,0,0,0-0.2-1c-0.2-1,0.1-32.2,0.1-32.2   c0-0.8-0.6-1.4-1.4-1.3L-227.7,380.6z"></path></g><path d="M-219.4,406.8c-0.1,0-0.3,0.1-0.3,0.3v2c0,0.1,0.1,0.2,0.2,0.2c0,0,3.2-1.4,3.9,2.3c0.7,3.6,0,36.2,0,36.2  c0,0.1,0.1,0.3,0.3,0.3l26.8,1.2c0.1,0,0.3-0.1,0.3-0.2v-1.5c0-0.1-0.1-0.3-0.3-0.3l-17.8-0.8c-0.1,0-0.3-0.1-0.3-0.3l-1.4-11.4  c0-0.1,0.1-0.3,0.2-0.3h18.6c0.1,0,0.3-0.1,0.3-0.3l-0.2-6.6c0-0.1-0.1-0.3-0.2-0.3l-20.6,0.2c-0.1,0-0.3-0.1-0.2-0.3l-0.3-9.3  c0-0.1,0.1-0.3,0.3-0.3l1.2-0.4c0.1,0,0.2,0,0.2,0.2l0.7,7.7c0,0.1,0.1,0.3,0.3,0.2l18.3-0.8c0.1,0,0.3-0.1,0.3-0.3l0.1-11.5  c0-0.1,0-0.4,0.1-0.5c0,0-0.2-2.4,2.7-2.9c0.1,0,0.2-0.3,0.2-0.5c0,0,0-1.7,0-1.8c0-0.1-0.1-0.2-0.3-0.2H-219.4z"></path><g><path d="M-186.2,414.8c-0.7,0.4-1.2,1.4-1.2,2.1v9.1c0,0.8,0.6,1.7,1.3,2c0.7,0.3,1.3-0.1,1.3-0.9v-11.7c0-0.8-0.5-1.1-1.2-0.7   L-186.2,414.8z"></path></g><g><path d="M-204.4,436.4c-0.8,0-1.4,0.6-1.3,1.4l0.4,5.5c0.1,0.8,0.7,1.4,1.5,1.5l13.6,0.5c0.8,0,1.4-0.6,1.4-1.4v-6.1   c0-0.8-0.6-1.4-1.4-1.4H-204.4z M-191.1,441.7c0,0.8-0.6,1.4-1.4,1.4l-9.2-0.4c-0.8,0-1.5-0.7-1.5-1.5l-0.1-1.5   c-0.1-0.8,0.5-1.4,1.3-1.4h9.5c0.8,0,1.4,0.6,1.4,1.4V441.7z"></path></g><g><path d="M-214,450.5c-0.8,0-1.5,0.6-1.5,1.4l-0.4,6.6c0,0.8,0.5,1.4,1.3,1.4h0.7c0.8,0,1.7-0.5,2-1.2s1.2-1.2,2-1.3l14.1-0.4   c0.8,0,1.7,0.5,2,1.2l0.2,0.3c0.3,0.7,1.2,1.3,2,1.3h1.4c0.8,0,1.4-0.6,1.4-1.4v-6.6c0-0.8-0.6-1.4-1.4-1.4H-214z"></path></g><g><circle cx="-183.2" cy="421.6" r="0.9"></circle></g></svg>