<svg fill="#70C041" xmlns="http://www.w3.org/2000/svg" xmlns:xlink="http://www.w3.org/1999/xlink" version="1.1" x="0px" y="0px" viewBox="0 0 91 91" enable-background="new 0 0 91 91" xml:space="preserve"><g><path d="M83.178,55.07c1.229-3.48,1.905-7.221,1.905-11.116c0-3.818-0.651-7.486-1.834-10.908c-0.027-0.129-0.07-0.248-0.124-0.365   c-4.638-12.93-17.012-22.205-31.516-22.205c-0.967,0-1.75,0.783-1.75,1.75v63.464c0,0.967,0.783,1.75,1.75,1.75   c0.044,0,0.086-0.01,0.13-0.012c0.704-0.004,1.402-0.033,2.096-0.08c0.173,0.055,0.35,0.092,0.53,0.092   c0.259,0,0.51-0.078,0.75-0.193c12.956-1.355,23.734-10.133,28.001-21.992C83.142,55.195,83.158,55.133,83.178,55.07z    M78.935,31.657H68.288c-2.277-7.756-6.275-13.434-9.072-16.701C68.021,17.269,75.249,23.497,78.935,31.657z M53.359,14.03   c0.056,0.004,0.111,0.01,0.167,0.014c0.086,0.127,0.184,0.248,0.306,0.354c0.096,0.082,7.231,6.348,10.772,17.26H53.359V14.03z    M53.359,35.157h12.203c0.615,2.707,0.992,5.641,0.992,8.797c0,3.153-0.389,6.106-1.023,8.845H53.359V35.157z M53.771,73.844   c-0.138,0.01-0.274,0.023-0.412,0.031V56.299h11.196C61.438,65.797,55.59,72.061,53.771,73.844z M59.373,72.904   c2.883-3.51,6.678-9.166,8.883-16.605h10.656C75.241,64.387,68.088,70.564,59.373,72.904z M80.25,52.799H69.142   c0.574-2.748,0.913-5.701,0.913-8.845c0-3.139-0.331-6.074-0.89-8.797h11.099c0.856,2.783,1.319,5.736,1.319,8.797   C81.583,47.031,81.115,50.002,80.25,52.799z"></path><path d="M31.898,79.324c0.001,0,0.001,0,0.002,0c3.003,0,5.911-0.543,8.663-1.609l3.873,3.83c0.341,0.338,0.786,0.506,1.23,0.506   c0.451,0,0.902-0.174,1.244-0.52c0.68-0.688,0.674-1.795-0.014-2.475l-2.654-2.625c0.096-0.217,0.15-0.453,0.15-0.705V21.729   c0-0.967-0.783-1.75-1.75-1.75s-1.75,0.783-1.75,1.75v17.334l-9.463-7.969c-0.74-0.623-1.843-0.527-2.466,0.211   c-0.622,0.74-0.527,1.844,0.212,2.467l11.453,9.645c0.08,0.068,0.176,0.1,0.264,0.152v10.667c-1.06-1.803-2.341-3.498-3.861-5.018   c-4.33-4.33-10.781-7.683-17.1-9.122c0.229-12.1,9.144-23.096,22.356-27.459c0.918-0.305,1.416-1.293,1.113-2.211   c-0.304-0.918-1.296-1.414-2.211-1.113c-14.438,4.77-24.256,16.811-24.757,30.188c-0.982-0.109-1.953-0.172-2.899-0.172   c-2.707,0-5.136,0.461-7.217,1.371c-0.404,0.176-0.728,0.5-0.904,0.904c-3.904,8.958,1.437,22.935,8.874,30.368   C19.029,76.713,25.284,79.324,31.898,79.324z M8.365,43.649c1.498-0.545,3.233-0.82,5.17-0.82c7.045,0,15.886,3.728,21.022,8.866   c5.483,5.479,7.554,13.484,5.569,20.664L28.274,60.637l-0.075-8.385c-0.009-0.961-0.791-1.734-1.75-1.734c-0.005,0-0.011,0-0.016,0   c-0.967,0.01-1.743,0.799-1.734,1.766l0.044,4.861l-5.426-5.367c-0.687-0.68-1.796-0.674-2.475,0.014   c-0.68,0.688-0.674,1.795,0.014,2.475l8.441,8.35c0.002,0.002,0.003,0.004,0.005,0.004l3.156,3.123l-8.401-0.822   c-0.98-0.096-1.818,0.609-1.912,1.57c-0.095,0.961,0.608,1.818,1.57,1.912l12.688,1.242l5.382,5.322   c-1.894,0.566-3.863,0.857-5.886,0.857h-0.001c-5.681,0-11.056-2.246-15.137-6.326C10.458,63.197,5.616,51.234,8.365,43.649z"></path></g></svg>