<svg fill="#F5D327" xmlns="http://www.w3.org/2000/svg" xmlns:xlink="http://www.w3.org/1999/xlink" version="1.1" viewBox="0 0 96 96" x="0px" y="0px"><path d="M74.944 83.116h-16.736c-1.1 0-2-0.896-2-2s0.9-2 2-2h16.736c3.976 0 8.172-2.632 10.428-6.556 2.172-3.752 2.22-8.9 0.132-12.508l-12.348-21.412c-0.556-0.956-0.228-2.18 0.736-2.736 0.96-0.56 2.18-0.232 2.736 0.736l12.344 21.416c2.812 4.872 2.764 11.508-0.124 16.508-3.004 5.192-8.456 8.552-13.904 8.552z" fill="#F5D327"></path><path d="M22.896 36.288c-0.34 0-0.684-0.084-1-0.268-0.956-0.552-1.284-1.768-0.728-2.732l12.968-22.468c2.836-4.904 8.104-7.936 13.764-7.936 5.664 0 10.936 3.048 13.764 7.94l9.696 16.784c0.556 0.956 0.228 2.18-0.744 2.732-0.952 0.56-2.18 0.236-2.728-0.732l-9.68-16.784c-2.116-3.668-6.072-5.94-10.304-5.94s-8.188 2.268-10.304 5.936l-12.972 22.468c-0.368 0.64-1.044 1-1.732 1z" fill="#F5D327"></path><path d="M46.212 83.116h-25.344c-5.288 0-10.696-3.436-13.764-8.756-2.864-4.94-2.864-11.348 0-16.296l8.804-16.112c0.532-0.968 1.752-1.324 2.72-0.792 0.968 0.528 1.32 1.752 0.788 2.72l-8.828 16.148c-2.148 3.732-2.148 8.668-0.024 12.352 2.376 4.096 6.416 6.752 10.304 6.752h25.344c1.1 0 2 0.896 2 2s-0.896 1.984-2 1.984z" fill="#F5D327"></path><path d="M42.4 93.116c-0.4 0-0.796-0.116-1.144-0.36-0.908-0.632-1.128-1.88-0.496-2.784l6.18-8.848-6.172-8.724c-0.632-0.912-0.416-2.152 0.476-2.788 0.9-0.636 2.148-0.428 2.788 0.476l6.984 9.876c0.484 0.692 0.484 1.608 0.008 2.3l-6.984 10c-0.388 0.556-1.012 0.852-1.64 0.852z" fill="#F5D327"></path><path d="M21.4 38.892c-0.84 0-1.6-0.54-1.888-1.34l-3.524-10.108c-0.368-1.040 0.184-2.184 1.228-2.544 1.044-0.384 2.188 0.184 2.552 1.228l2.984 8.572 9.28-1.228c1.080-0.148 2.1 0.62 2.252 1.724 0.14 1.092-0.632 2.1-1.728 2.252l-10.896 1.436c-0.088 0.004-0.172 0.008-0.26 0.008z" fill="#F5D327"></path><path d="M68.584 45.116c-0.304 0-0.608-0.072-0.9-0.216-0.992-0.5-1.392-1.712-0.892-2.688l4.416-8.704c0.36-0.708 1.1-1.144 1.892-1.084l10.884 0.588c1.1 0.068 1.944 1.004 1.892 2.104s-0.992 2.076-2.1 1.888l-9.58-0.524-3.812 7.528c-0.368 0.708-1.072 1.108-1.8 1.108z" fill="#F5D327"></path></svg>