<svg fill="#F5D327" xmlns="http://www.w3.org/2000/svg" xmlns:xlink="http://www.w3.org/1999/xlink" version="1.1" x="0px" y="0px" viewBox="0 0 100 100" enable-background="new 0 0 100 100" xml:space="preserve"><path d="M31.4,31.4c9-9,22.8-10.3,33.2-3.9C61.1,31,57,35.1,57,35.1c-2.8,3.4,0.4,5.4,2,5.3l19,0c1,0,1.8,0,1.8,0s0.8,0,1.8,0h3.7  c1,0,1.8-0.8,1.8-1.8V12.4c0.1-2.4-2.5-4.7-5.2-2c0,0-4.5,4.4-7.6,7.4c-15.8-11.6-38.2-10.3-52.5,4c-8.4,8.4-12.2,19.4-11.8,30.4  h13.5C23.1,44.8,25.7,37.2,31.4,31.4z"></path><path d="M76.4,47.7c0.5,7.5-2.1,15.1-7.8,20.8c-9,9-22.8,10.3-33.2,3.9c3.5-3.5,7.6-7.6,7.6-7.6c2.8-3.4-0.3-5.4-2-5.3l-19,0  c-1,0-1.8,0-1.8,0s-0.8,0-1.8,0h-3.7c-1,0-1.8,0.8-1.8,1.8v26.1c-0.1,2.4,2.5,4.7,5.2,2c0,0,4.5-4.4,7.6-7.4  c15.9,11.6,38.2,10.3,52.5-4c8.3-8.4,12.2-19.4,11.8-30.4L76.4,47.7L76.4,47.7z"></path></svg>